# xmcd
#
# Track frame offsets:
#	150
#	21347
#	44465
#	67129
#	88430
#	109166
#	115738
#	133556
#	156903
#	175858
#
# Disc length: 2669 seconds
# Revision: 0
# Processed by: cddbd v1.5.2PL0 Copyright (c) Steve Scherf et al.
# Submitted via: dBpowerAMP V12.0
#
DISCID=8e0a6b0a
DTITLE=Anterior - Echoes of the Fallen
DYEAR=2011
DGENRE=Metal
TTITLE0=To Live Not Remain
TTITLE1=Blood in the Throne Room
TTITLE2=Tyranny
TTITLE3=Of Gods and Men
TTITLE4=By Horror Haunted
TTITLE5=Echoes of the Fallen
TTITLE6=The Evangelist
TTITLE7=Sleep Soundly No More
TTITLE8=Venomous
TTITLE9=Senora de Las Sombras
EXTD=
EXTT0=
EXTT1=
EXTT2=
EXTT3=
EXTT4=
EXTT5=
EXTT6=
EXTT7=
EXTT8=
EXTT9=
PLAYORDER=
